<?xml version="1.0" encoding="UTF-8"?>
<svg id="Layer_2" data-name="Layer 2" xmlns="http://www.w3.org/2000/svg" viewBox="0 0 248.85 92.81">
  <defs>
    <style>
      .cls-1 {
        fill: #d1cfc3;
      }
    </style>
  </defs>
  <g id="Layer_1-2" data-name="Layer 1">
    <g>
      <path class="cls-1" d="M109.22.01c-.16,0-.33-.01-.5-.01C97.28,0,90.45,7.92,90.45,21.19v47.71h8.03v-16.14h0v-30.34c0-9.26,3.89-14.46,10.96-14.64l.97-.03V.05l-1.21-.04Z"/>
      <path class="cls-1" d="M167.69,0c-7.1,0-12.58,2.95-15.65,8.35C149.05,3.01,143.52,0,136.55,0,124.99,0,118.09,7.92,118.09,21.19v47.71h8.03v-16.14h.01v-31.29c0-6.26,1.84-13.72,10.61-13.72,7.26,0,11.27,5.21,11.27,14.66v30.34h0v16.14h8.03v-16.14h0v-30.34c0-9.46,4.03-14.66,11.36-14.66,8.69,0,10.51,7.46,10.51,13.72v31.29h0v16.14h8.03V21.19C185.95,7.92,179.12,0,167.69,0Z"/>
      <path class="cls-1" d="M81.99,27.85h0v-1s0-1.47,0-1.47h-.04C81.21,10.81,70.2,0,55.8,0s-25.41,10.81-26.15,25.38h-.04v2.47s0,0,0,0v13.2h0v1c.05,15.31,11.31,26.85,26.19,26.85s26.14-11.54,26.19-26.85v-1s0,0,0,0v-13.2ZM73.85,42.05c-.04,11.07-7.63,19.1-18.05,19.1s-18.01-8.03-18.06-19.1v-1h-.01v-13.2h0v-1c.05-11.07,7.64-19.1,18.06-19.1s18.01,8.03,18.05,19.1v1h.01v13.2h0v1Z"/>
      <path class="cls-1" d="M248.85,27.85h0v-1s0-1.47,0-1.47h-.04C248.07,10.81,237.06,0,222.66,0s-25.41,10.81-26.15,25.38h-.04v2.47s0,0,0,0v13.2h0v1c.05,15.31,11.31,26.85,26.19,26.85,7.16,0,13.48-2.68,18.11-7.16v7.16h8.03v-25.32c.03-.51.04-1.02.04-1.53v-1s0,0,0,0v-13.2ZM240.72,42.05c-.04,11.07-7.63,19.1-18.06,19.1s-18.01-8.03-18.05-19.1v-1h-.01v-13.2h0v-1c.05-11.07,7.64-19.1,18.06-19.1s18.01,8.03,18.06,19.1v1h.01v13.2h0v1Z"/>
      <path class="cls-1" d="M19.01,7.78l.97-.03V.05l-1.21-.04c-.16,0-.33-.01-.5-.01C6.84,0,.01,7.92.01,21.19v47.71h8.03v-16.14h0v-10.32h11.94v-6.67h-11.94v-13.36c0-9.26,3.89-14.46,10.96-14.64Z"/>
    </g>
    <g>
      <path class="cls-1" d="M6.09,82.68c-.49-.56-1.29-1.12-2.56-1.12-2.6,0-3.52,2-3.52,3.71,0,2.62,1.83,3.81,3.52,3.81.5,0,1.69-.12,2.56-1.17v.98h.93v-12.64h-.93v6.42ZM3.56,88.19c-1.25,0-2.59-.92-2.59-2.93s1.29-2.8,2.56-2.8c1.55,0,2.59,1.12,2.59,2.8,0,2.02-1.33,2.93-2.56,2.93Z"/>
      <path class="cls-1" d="M27.6,81.56c-2.4,0-3.49,1.96-3.49,3.78,0,2.24,1.42,3.75,3.54,3.75,1.93,0,2.85-1.37,3.15-1.95l.06-.1-.8-.47-.06.12c-.46.96-1.3,1.51-2.3,1.51-1.46,0-2.57-1.14-2.63-2.67h5.93v-.12c0-2.22-1.43-3.83-3.41-3.83ZM27.6,82.46c1.23,0,2.21.88,2.42,2.16h-4.88c.24-1.28,1.23-2.16,2.45-2.16Z"/>
      <path class="cls-1" d="M50.33,84.59l-.26-.1c-.73-.29-1.15-.49-1.15-1.06,0-.48.37-.98,1.05-.98.5,0,.9.26,1.09.71l.05.12.8-.42-.05-.11c-.33-.76-1.03-1.2-1.93-1.2-1.15,0-1.98.8-1.98,1.91,0,.36.11.68.33.98.34.45.91.69,1.57.96,1.1.44,1.47.71,1.47,1.38,0,.81-.6,1.4-1.42,1.4-.78,0-1.41-.51-1.61-1.3l-.03-.13-.9.28.03.11c.29,1.17,1.28,1.93,2.52,1.93s2.39-.72,2.39-2.33c0-.34-.04-.78-.38-1.2-.41-.52-.97-.73-1.58-.96Z"/>
      <path class="cls-1" d="M69.57,78.77c-.42,0-.74.32-.74.75s.32.75.74.75.74-.32.74-.75-.32-.75-.74-.75Z"/>
      <rect class="cls-1" x="69.1" y="81.71" width=".93" height="7.19"/>
      <path class="cls-1" d="M93.28,82.68c-.63-.73-1.52-1.12-2.53-1.12-2.14,0-3.63,1.54-3.63,3.75,0,2.48,1.78,3.78,3.54,3.78,1.02,0,1.96-.41,2.61-1.15v.63c0,1.25-.35,3.34-2.68,3.34-1.44,0-2.45-.87-2.56-2.21v-.11h-.97v.13c.09,1.85,1.5,3.09,3.53,3.09,2.26,0,3.61-1.58,3.61-4.24v-6.86h-.93v.97ZM93.31,85.27c0,1.72-1.09,2.92-2.66,2.92s-2.56-1.17-2.56-2.85c0-1.43.89-2.88,2.59-2.88,1.55,0,2.63,1.16,2.63,2.82Z"/>
      <path class="cls-1" d="M114.67,81.56c-1,0-1.62.46-2,.95v-.8h-.93v7.19h.93v-3.73c0-.58.04-1.25.36-1.81.33-.6.87-.9,1.59-.9s1.08.34,1.26.62c.23.36.25.85.25,1.33v4.49h.93v-4.49c0-.6-.03-1.28-.36-1.82-.25-.38-.84-1.03-2.03-1.03Z"/>
      <polygon class="cls-1" points="138.2 79.64 137.27 79.64 137.27 82.73 133.92 82.73 133.92 83.63 137.27 83.63 137.27 86.72 138.2 86.72 138.2 83.63 141.55 83.63 141.55 82.73 138.2 82.73 138.2 79.64"/>
      <path class="cls-1" d="M161.94,81.56c-1.04,0-1.93.39-2.59,1.13v-6.44h-.93v12.64h.93v-.97c.4.5,1.19,1.16,2.56,1.16,2.08,0,3.52-1.58,3.52-3.83s-1.44-3.69-3.49-3.69ZM161.91,82.46c1.27,0,2.56.87,2.56,2.8,0,1.78-1.01,2.93-2.58,2.93s-2.58-1.17-2.58-2.97c0-1.9,1.35-2.76,2.59-2.76Z"/>
      <path class="cls-1" d="M186.84,86.02c0,.4,0,1.16-.41,1.65-.29.34-.72.52-1.28.52s-1-.17-1.28-.52c-.41-.5-.41-1.25-.41-1.65v-4.31h-.93v4.49c0,.63.07,1.35.55,1.98.61.78,1.56.9,2.07.9s1.46-.12,2.07-.9c.49-.63.55-1.35.55-1.98v-4.49h-.93v4.31Z"/>
      <path class="cls-1" d="M205.77,78.77c-.42,0-.74.32-.74.75s.32.75.74.75.74-.32.74-.75-.32-.75-.74-.75Z"/>
      <rect class="cls-1" x="205.3" y="81.71" width=".93" height="7.19"/>
      <rect class="cls-1" x="223.76" y="76.26" width=".93" height="12.64"/>
      <path class="cls-1" d="M247.87,76.26v6.42c-.49-.56-1.29-1.12-2.56-1.12-2.6,0-3.52,2-3.52,3.71,0,2.62,1.83,3.81,3.52,3.81.5,0,1.69-.12,2.56-1.17v.98h.93v-12.64h-.93ZM245.34,88.19c-1.25,0-2.59-.92-2.59-2.93s1.29-2.8,2.56-2.8c1.55,0,2.59,1.12,2.59,2.8,0,2.02-1.33,2.93-2.56,2.93Z"/>
    </g>
  </g>
</svg>