<?xml version="1.0" encoding="UTF-8"?>
<svg id="Layer_2" data-name="Layer 2" xmlns="http://www.w3.org/2000/svg" viewBox="0 0 248.84 68.9">
  <defs>
    <style>
      .cls-1 {
        fill: #1d1919;
      }
    </style>
  </defs>
  <g id="Layer_1-2" data-name="Layer 1">
    <g>
      <path class="cls-1" d="M109.2.01c-.16,0-.33-.01-.5-.01C97.27,0,90.44,7.92,90.44,21.19v47.71h8.03v-16.14h0v-30.34c0-9.26,3.89-14.46,10.96-14.64l.97-.03V.05l-1.21-.04Z"/>
      <path class="cls-1" d="M167.68,0c-7.1,0-12.58,2.95-15.65,8.35C149.04,3.01,143.5,0,136.54,0,124.98,0,118.08,7.92,118.08,21.19v47.71h8.03v-16.14h.01v-31.29c0-6.26,1.84-13.72,10.61-13.72,7.26,0,11.27,5.21,11.27,14.66v30.34h0v16.14h8.03v-16.14h0v-30.34c0-9.46,4.03-14.66,11.36-14.66,8.69,0,10.51,7.46,10.51,13.72v31.29h0v16.14h8.03V21.19C185.94,7.92,179.11,0,167.68,0Z"/>
      <path class="cls-1" d="M81.98,27.85h0v-1s0-1.47,0-1.47h-.04C81.2,10.81,70.19,0,55.79,0s-25.41,10.81-26.15,25.38h-.04v2.47s0,0,0,0v13.2h0v1c.05,15.31,11.31,26.85,26.19,26.85s26.14-11.54,26.19-26.85v-1s0,0,0,0v-13.2ZM73.84,42.05c-.04,11.07-7.63,19.1-18.05,19.1s-18.01-8.03-18.06-19.1v-1h-.01v-13.2h0v-1c.05-11.07,7.64-19.1,18.06-19.1s18.01,8.03,18.05,19.1v1h.01v13.2h0v1Z"/>
      <path class="cls-1" d="M248.84,27.85h0v-1s0-1.47,0-1.47h-.04C248.06,10.81,237.05,0,222.65,0s-25.41,10.81-26.15,25.38h-.04v2.47s0,0,0,0v13.2h0v1c.05,15.31,11.31,26.85,26.19,26.85,7.16,0,13.48-2.68,18.11-7.16v7.16h8.03v-25.32c.03-.51.04-1.02.04-1.53v-1s0,0,0,0v-13.2ZM240.71,42.05c-.04,11.07-7.63,19.1-18.06,19.1s-18.01-8.03-18.05-19.1v-1h-.01v-13.2h0v-1c.05-11.07,7.64-19.1,18.06-19.1s18.01,8.03,18.06,19.1v1h.01v13.2h0v1Z"/>
      <path class="cls-1" d="M19,7.78l.97-.03V.05l-1.21-.04c-.16,0-.33-.01-.5-.01C6.83,0,0,7.92,0,21.19v47.71h8.03v-16.14h0v-10.32h11.94v-6.67h-11.94v-13.36c0-9.26,3.89-14.46,10.96-14.64Z"/>
    </g>
  </g>
</svg>